<?xml version="1.0" standalone="no"?>
<!DOCTYPE svg PUBLIC "-//W3C//DTD SVG 20010904//EN"
 "http://www.w3.org/TR/2001/REC-SVG-20010904/DTD/svg10.dtd">
<svg version="1.0" xmlns="http://www.w3.org/2000/svg"
 width="300.000000pt" height="300.000000pt" viewBox="0 0 300.000000 300.000000"
 preserveAspectRatio="xMidYMid meet">
<metadata>
Created by potrace 1.10, written by Peter Selinger 2001-2011
</metadata>
<g transform="translate(0.000000,300.000000) scale(0.100000,-0.100000)"
fill="#000000" stroke="none">
<path d="M206 2429 c-17 -13 -26 -30 -26 -49 0 -22 303 -841 349 -945 5 -11
38 -96 72 -190 72 -191 102 -243 174 -297 154 -118 371 -74 472 94 42 68 513
1298 513 1337 0 20 -9 36 -26 50 -33 26 -37 26 -69 -1 -19 -17 -57 -103 -141
-323 -64 -165 -140 -361 -169 -435 -29 -74 -88 -225 -130 -335 -87 -224 -103
-253 -159 -289 -69 -45 -185 -30 -237 30 -29 33 -46 75 -250 607 -273 714
-277 724 -307 747 -31 25 -33 25 -66 -1z m72 -71 c20 -53 258 -673 400 -1043
42 -110 90 -220 107 -245 59 -88 188 -121 281 -73 90 47 90 48 363 756 210
543 258 657 273 657 10 0 21 -6 24 -14 3 -7 -52 -161 -121 -342 -392 -1021
-376 -982 -418 -1030 -61 -69 -125 -98 -217 -99 -59 0 -85 5 -124 24 -57 28
-109 77 -135 130 -38 74 -502 1311 -496 1321 3 5 15 10 25 10 13 0 24 -15 38
-52z"/>
<path d="M2013 2430 c-92 -19 -181 -85 -225 -167 -15 -26 -63 -145 -108 -263
-45 -118 -99 -260 -120 -315 -139 -357 -272 -712 -277 -739 -4 -24 1 -36 21
-55 32 -30 67 -23 94 21 11 18 75 175 142 348 298 773 362 933 387 967 31 40
97 73 148 73 51 0 119 -34 150 -74 14 -18 90 -203 170 -412 80 -208 156 -406
169 -439 13 -33 57 -145 96 -250 78 -205 107 -255 145 -255 33 0 67 46 60 81
-3 15 -51 146 -106 290 -55 145 -131 345 -169 444 -230 608 -220 583 -281 650
-68 74 -197 115 -296 95z m162 -53 c56 -20 104 -59 139 -110 38 -58 520 -1315
514 -1344 -4 -19 -18 -26 -34 -15 -6 4 -122 297 -258 651 -136 354 -258 659
-270 677 -101 149 -323 133 -399 -28 -8 -18 -124 -314 -257 -658 -133 -344
-248 -632 -256 -640 -14 -13 -17 -13 -29 4 -8 10 -13 22 -11 25 4 6 132 339
366 951 72 190 143 361 157 380 80 108 218 152 338 107z"/>
<path d="M1756 532 c-3 -4 -40 -6 -84 -4 -60 2 -81 0 -91 -11 -16 -20 -5 -60
25 -88 23 -22 24 -22 44 -4 16 14 22 15 35 5 8 -7 25 -10 39 -6 14 3 28 2 31
-4 10 -17 51 -11 70 10 20 22 14 63 -12 93 -17 18 -48 23 -57 9z m-138 -39 l9
-28 13 28 c7 15 17 27 22 27 11 0 11 0 -14 -51 l-21 -44 -18 40 c-21 47 -22
55 -10 55 5 0 14 -12 19 -27z m99 -18 c1 -19 -2 -37 -8 -40 -5 -4 -9 14 -9 41
0 53 13 52 17 -1z m90 28 c3 -7 -4 -9 -18 -6 -15 4 -20 3 -15 -5 4 -7 13 -12
21 -12 19 0 26 -27 10 -40 -15 -13 -55 -5 -55 11 0 5 12 7 28 4 26 -6 26 -6 8
9 -10 8 -24 17 -30 19 -16 6 14 39 32 35 9 -2 17 -8 19 -15z"/>
<path d="M1893 518 c-16 -18 -11 -82 8 -93 19 -12 61 -15 73 -6 9 7 23 7 44
-1 24 -9 39 -10 61 -1 17 6 33 8 36 4 13 -12 225 -8 236 5 12 15 15 60 5 92
-9 26 -56 31 -76 7 -9 -11 -17 -12 -31 -4 -11 5 -28 7 -39 4 -10 -3 -21 -1
-25 5 -8 13 -62 13 -70 0 -3 -6 -15 -5 -30 2 -19 8 -35 8 -62 0 -20 -6 -41 -8
-46 -5 -21 13 -69 7 -84 -9z m57 -20 c0 12 5 22 10 22 6 0 10 -21 10 -47 l0
-48 -20 25 c-15 20 -20 21 -20 8 0 -9 -4 -20 -10 -23 -6 -4 -10 12 -10 42 l0
48 20 -25 c20 -25 20 -25 20 -2z m121 12 c28 -16 25 -58 -6 -72 -19 -8 -28 -8
-40 2 -20 17 -19 57 3 69 21 13 20 13 43 1z m95 2 c6 -4 11 -23 10 -42 -1 -28
-5 -36 -23 -38 -21 -3 -23 1 -23 42 0 45 10 56 36 38z m69 -33 c-5 -22 -3 -29
9 -29 9 0 16 -4 16 -10 0 -5 -9 -10 -20 -10 -17 0 -20 7 -20 46 0 29 4 43 11
39 6 -4 7 -19 4 -36z m115 31 c0 -5 -9 -10 -20 -10 -28 0 -25 -20 3 -21 l22
-2 -22 -4 c-28 -5 -30 -23 -3 -23 11 0 20 -5 20 -11 0 -6 -12 -9 -27 -7 -23 2
-28 8 -30 33 -1 17 0 36 2 43 5 14 55 17 55 2z"/>
<path d="M2026 491 c-10 -16 5 -41 25 -41 14 0 19 7 19 25 0 18 -5 25 -19 25
-11 0 -22 -4 -25 -9z"/>
</g>
</svg>
